<?xml version="1.0" encoding="UTF-8"?> <svg xmlns="http://www.w3.org/2000/svg" xmlns:xlink="http://www.w3.org/1999/xlink" xmlns:xodm="http://www.corel.com/coreldraw/odm/2003" xml:space="preserve" width="500px" height="285px" version="1.1" shape-rendering="geometricPrecision" text-rendering="geometricPrecision" image-rendering="optimizeQuality" fill-rule="evenodd" clip-rule="evenodd" viewBox="0 0 500 285"> <g id="Layer_x0020_1"> <metadata id="CorelCorpID_0Corel-Layer"></metadata> <g id="_2831626570368"> <path fill="#206EB5" d="M472.5 110.24c0,51.62 -41.57,93.48 -92.85,93.48l-259.3 0c-51.28,0 -92.85,-41.86 -92.85,-93.48 0,-51.64 41.57,-93.5 92.85,-93.5l259.3 0c51.28,0 92.85,41.86 92.85,93.5zm-17.3 0c0,-39.51 -31.81,-71.53 -71.03,-76.24l-268.53 0c-39.22,4.71 -71.02,36.73 -71.02,76.24 0,39.51 31.8,71.51 71.02,76.15l268.53 0c39.22,-4.64 71.03,-36.64 71.03,-76.15zm-347.55 23.07c0,6.55 -0.89,13.57 5.22,17.45l0 0.38 -33.54 0 0 -0.38c6.11,-3.88 5.24,-10.9 5.24,-17.45l0 -46.82c0,-6.52 0.87,-13.67 -5.24,-17.58l0 -0.38 33.54 0 0 0.38c-6.11,3.91 -5.22,11.06 -5.22,17.58l0 46.82zm90.39 20.46c-4.36,0 -11.22,-3.12 -14.96,-5.01 -9.23,-4.64 -11.6,-8.9 -17.7,-16.96l-23.94 -32.12 -0.38 0 0 33.13c0,7.28 0.12,12.81 5.5,17.95l0 0.38 -24.08 0 0 -0.38c5.49,-5.14 5.61,-10.67 5.61,-17.95l0 -43.31c0,-9.66 -0.5,-13.06 -7.23,-20.59l0 -0.38 25.94 0 0 0.38 38.28 50.46 0 -32.51c0,-7.28 -0.13,-12.8 -5.5,-17.95l0 -0.38 23.94 0 0 0.38c-5.36,5.15 -5.48,10.67 -5.48,17.95l0 66.91zm54.5 -20.81c0,7.13 0.14,12.78 5.5,17.8l0 0.38 -33.79 0 0 -0.38c6.1,-3.88 5.24,-11.04 5.24,-17.56l0 -50.48c-2.13,-0.49 -4,-0.49 -6.24,-0.49 -5.73,0 -9.36,1.37 -14.09,4.63l-0.88 0.62 4.87 -19.33 2.38 0.38 57.84 0 -4.24 18.95c-1.86,-4.26 -5.73,-5.52 -10.22,-5.52 -2.25,0 -4.24,0.13 -6.37,0.76l0 50.24zm43.24 -6.81l-2.99 8.54c-0.87,2.52 -2.25,6.42 -2.25,9.04 0,3.53 2.25,5.14 4.49,7.03l0 0.38 -25.56 0 0 -0.38c4.75,-4.39 6.35,-8.03 8.61,-14.44l17.2 -50.08c0.75,-2.5 2.74,-7.41 2.74,-10.04 0,-3.38 -2.24,-5.65 -4.74,-7.29l0 -0.38 30.54 0 23.56 64.67c3,8.02 3.63,10.92 10.74,17.56l0 0.26 0 0.12 -37.65 0 0 -0.38c2.86,-1.89 5.1,-3.63 5.1,-7.66 0,-2.12 -0.24,-2.75 -1,-4.76l-4.1 -12.19 -24.69 0zm11.97 -36.4l-0.14 0 -8.23 24.74 16.96 0 -8.59 -24.74zm51.97 40.43c6.99,5.79 17.21,9.78 26.19,9.78 5.61,0 13.22,-1.87 13.22,-8.89 0,-15.34 -38.03,-12.19 -38.03,-40.31 0,-7.16 3.5,-14.05 9.21,-18.21 6.38,-4.52 14.1,-6.02 21.72,-6.02 6.97,0 14.45,1.26 20.93,3.77l0 14.7c-5.24,-3.4 -11.34,-5.91 -17.57,-5.91 -4.88,0 -10.85,2.14 -10.85,8.03 0,6.01 7.23,8.41 11.86,10.42 5.96,2.63 11.58,5.01 16.56,9.41 5.99,5.28 9.23,10.92 9.23,18.95 0,8.18 -3.36,15.45 -9.98,20.34 -7.34,5.41 -15.32,6.54 -24.18,6.54 -8.23,0 -16.46,-1.52 -24.2,-4.53l-4.11 -18.07z"></path> <path fill="#206EB5" fill-rule="nonzero" d="M65.77 255.53l-4.6 -12.51 -4.9 12.51 9.5 0zm2.14 5.69l-13.86 0 -3.16 8.04 -7.07 0 14.88 -36.4 3.73 0 2.33 0 14.39 36.4 -8.28 0 -2.96 -8.04z"></path> <polygon fill="#206EB5" fill-rule="nonzero" points="83.71,232.86 88.89,232.86 107.41,256.8 107.07,232.86 113.91,232.86 113.81,269.25 108.53,269.25 90.11,246.27 90.5,269.25 83.61,269.25 "></polygon> <polygon fill="#206EB5" fill-rule="nonzero" points="121.72,232.86 129.67,232.86 129.67,269.26 121.72,269.26 "></polygon> <polygon fill="#206EB5" fill-rule="nonzero" points="139.12,232.86 144.64,232.86 155.89,254.01 167.13,232.86 172.66,232.86 175.76,269.25 168.59,269.25 166.84,245.87 157.1,263.92 154.05,263.92 144.79,247.19 143.14,269.25 136.01,269.25 "></polygon> <path fill="#206EB5" fill-rule="nonzero" d="M201.5 255.53l-4.6 -12.51 -4.9 12.51 9.5 0zm2.13 5.69l-13.86 0 -3.15 8.04 -7.08 0 14.89 -36.4 3.73 0 2.32 0 14.4 36.4 -8.29 0 -2.96 -8.04z"></path> <polygon fill="#206EB5" fill-rule="nonzero" points="242.95,263.36 242.95,269.26 226.13,269.26 219.49,269.26 219.49,232.86 227.44,232.86 227.44,263.36 "></polygon> <polygon fill="#206EB5" fill-rule="nonzero" points="292.39,232.86 292.39,269.25 284.44,269.25 284.44,254.36 270.43,254.36 270.43,269.25 262.48,269.25 262.48,232.86 270.43,232.86 270.43,248.51 284.44,248.51 284.44,232.86 "></polygon> <polygon fill="#206EB5" fill-rule="nonzero" points="325.35,263.36 325.35,269.26 305.77,269.26 300.34,269.26 300.34,232.86 308.29,232.86 324.68,232.86 324.68,238.7 308.29,238.7 308.29,248.15 322.06,248.15 322.06,254.06 308.29,254.06 308.29,263.41 "></polygon> <path fill="#206EB5" fill-rule="nonzero" d="M349.88 255.53l-4.6 -12.51 -4.9 12.51 9.5 0zm2.13 5.69l-13.86 0 -3.15 8.04 -7.08 0 14.89 -36.4 3.73 0 2.32 0 14.39 36.4 -8.28 0 -2.96 -8.04z"></path> <polygon fill="#206EB5" fill-rule="nonzero" points="391.33,263.36 391.33,269.26 374.5,269.26 367.87,269.26 367.87,232.86 375.82,232.86 375.82,263.36 "></polygon> <polygon fill="#206EB5" fill-rule="nonzero" points="417.4,238.7 406.98,238.7 406.98,269.26 399.04,269.26 399.04,238.7 388.72,238.7 388.72,232.86 406.98,232.86 417.4,232.86 "></polygon> <polygon fill="#206EB5" fill-rule="nonzero" points="452.98,232.86 452.98,269.25 445.04,269.25 445.04,254.36 431.03,254.36 431.03,269.25 423.08,269.25 423.08,232.86 431.03,232.86 431.03,248.51 445.04,248.51 445.04,232.86 "></polygon> </g> </g> </svg> 